# xmcd
#
# Track frame offsets:
#	150
#	14821
#	26439
#	38665
#	50613
#	63159
#	76015
#	88328
#	101292
#	113130
#
# Disc length: 1667 seconds
#
# Revision: 1
# Processed by: cddbd v1.5.1PL2 Copyright (c) Steve Scherf et al.
# Submitted via: dBpowerAMP V4.0
#
DISCID=7306810a
DTITLE=The Countdown Singers - Classic Country Love Songs
DYEAR=2001
DGENRE=Country
TTITLE0=If Lovin' You Is Wrong (I Don't Want To Be Right)
TTITLE1=I Fall To Pieces
TTITLE2=I Believe In You
TTITLE3=Make The World Go Away
TTITLE4=Please Help Me, I'm Falling
TTITLE5=Room Full Of Roses
TTITLE6=Green, Green Grass Of Home
TTITLE7=I Will Always Love You
TTITLE8=Lovin' Her Was Easier
TTITLE9=I Love You Because
EXTD=
EXTT0=
EXTT1=
EXTT2=
EXTT3=
EXTT4=
EXTT5=
EXTT6=
EXTT7=
EXTT8=
EXTT9=
PLAYORDER=
